<svg width="31" height="31" viewBox="0 0 31 31" fill="none" xmlns="http://www.w3.org/2000/svg">
<path d="M6.74996 18.4165H18.4166V15.4998H6.74996V18.4165ZM6.74996 14.0415H24.25V11.1248H6.74996V14.0415ZM6.74996 9.6665H24.25V6.74984H6.74996V9.6665ZM0.916626 30.0832V3.83317C0.916626 3.03109 1.20246 2.34421 1.77413 1.77255C2.34482 1.20185 3.03121 0.916504 3.83329 0.916504H27.1666C27.9687 0.916504 28.6556 1.20185 29.2273 1.77255C29.7979 2.34421 30.0833 3.03109 30.0833 3.83317V21.3332C30.0833 22.1353 29.7979 22.8221 29.2273 23.3938C28.6556 23.9645 27.9687 24.2498 27.1666 24.2498H6.74996L0.916626 30.0832ZM3.83329 23.0467L5.54683 21.3332H27.1666V3.83317H3.83329V23.0467Z" fill="white"/>
</svg>
