<svg class="svg-icon" style="width: 1em; height: 1em;vertical-align: middle;fill: currentColor;overflow: hidden;" viewBox="0 0 1024 1024" version="1.1" xmlns="http://www.w3.org/2000/svg"><path d="M1005.696 781.408c-13.696 30.144-46.624 42.08-57.504 42.08l-66.72 0c-10.4-22.592-24.032-43.84-39.168-62.272l2.144 0c-13.888-15.488-98.368-57.472-145.248-83.008-9.248-5.024-16-8.64-21.632-11.552-1.504 1.792-2.848 3.648-4.544 5.312-0.544 0.608-1.248 1.376-2.048 2.176-30.336-6.496-61.664-11.136-91.616-14.304 41.216-13.632 56.16-29.664 56.352-29.856l1.92-2.08c8.832-8.544 11.84-23.552 12.64-36.576-7.488-5.824-14.464-12.576-21.088-19.808 11.328-15.104 21.6-31.872 30.592-50.112 2.816 3.52 5.76 6.272 8.64 9.376 61.152-142.272 10.016-309.088 10.016-309.088l9.024 0c-3.008-11.968-6.4-23.616-10.304-34.816 14.176-4.512 28.672-6.688 42.816-6.688 73.568 0 166.016 65.568 166.016 207.488 0 88.608-37.92 161.888-91.424 203.648 0.8 13.088 3.84 28.16 12.608 36.608l2.4 2.624c0.032 0 27.04 28.992 109.408 42.016 18.944 0.768 54.528 11.328 77.632 47.008 18.048 27.84 14.912 48.96 9.12 61.824zM540.352 688.896l3.456 3.68c0.064 0 38.496 40.384 155.712 58.592 26.944 1.088 77.6 15.808 110.496 65.472 25.664 38.816 21.216 68.224 12.96 86.08-19.488 42.048-71.424 45.28-86.912 45.28l-637.376 0c-10.976-0.64-55.296-5.472-75.424-43.488-8.512-16-15.168-42.848 1.216-79.552 29.856-66.752 99.008-73.184 115.584-73.792 117.728-18.272 156-58.944 156.384-59.36l2.72-2.88c12.576-11.84 16.832-32.768 17.984-50.88-76.192-58.176-136.768-168.448-136.768-291.872 0-197.664 134.656-269.728 239.328-269.728 104.704 0 237.952 72.064 237.952 269.728 0 123.392-59.104 233.696-135.232 291.808 1.184 18.208 5.44 39.168 17.92 50.944z"  fill="white" /></svg>