<svg width="31" height="27" viewBox="0 0 31 27" fill="none" xmlns="http://www.w3.org/2000/svg">
<path d="M6.74996 20.7917H14.0416V17.875H6.74996V20.7917ZM21.3333 20.7917H24.25V17.875H21.3333V20.7917ZM6.74996 14.9583H14.0416V12.0417H6.74996V14.9583ZM21.3333 14.9583H24.25V6.20833H21.3333V14.9583ZM6.74996 9.125H14.0416V6.20833H6.74996V9.125ZM3.83329 26.625C3.03121 26.625 2.34482 26.3397 1.77413 25.769C1.20246 25.1973 0.916626 24.5104 0.916626 23.7083V3.29167C0.916626 2.48958 1.20246 1.80271 1.77413 1.23104C2.34482 0.660347 3.03121 0.375 3.83329 0.375H27.1666C27.9687 0.375 28.6556 0.660347 29.2272 1.23104C29.7979 1.80271 30.0833 2.48958 30.0833 3.29167V23.7083C30.0833 24.5104 29.7979 25.1973 29.2272 25.769C28.6556 26.3397 27.9687 26.625 27.1666 26.625H3.83329ZM3.83329 23.7083H27.1666V3.29167H3.83329V23.7083Z" fill="#A3C8CF"/>
</svg>
