<svg width="15" height="27" viewBox="0 0 15 27" fill="none" xmlns="http://www.w3.org/2000/svg">
<path d="M6.07808 26.625V23.4896C4.78989 23.1979 3.67815 22.6389 2.74288 21.8125C1.80663 20.9861 1.11975 19.8194 0.682251 18.3125L3.38017 17.2188C3.74475 18.3854 4.28579 19.2726 5.00329 19.8802C5.71982 20.4878 6.66142 20.7917 7.82809 20.7917C8.82461 20.7917 9.66947 20.5671 10.3627 20.1179C11.0549 19.6678 11.401 18.9688 11.401 18.0208C11.401 17.1701 11.1336 16.4954 10.5989 15.9967C10.0642 15.4989 8.82461 14.934 6.88017 14.3021C4.78989 13.6458 3.35586 12.8622 2.57808 11.9513C1.80031 11.0393 1.41142 9.92708 1.41142 8.61458C1.41142 7.03472 1.92183 5.80729 2.94267 4.93229C3.9635 4.05729 5.00864 3.55903 6.07808 3.4375V0.375H8.99475V3.4375C10.21 3.63194 11.2129 4.07528 12.0033 4.7675C12.7927 5.46069 13.3698 6.30556 13.7343 7.30208L11.0364 8.46875C10.7448 7.69097 10.3316 7.10764 9.79683 6.71875C9.26211 6.32986 8.53295 6.13542 7.60933 6.13542C6.53989 6.13542 5.72565 6.37264 5.16663 6.84708C4.6076 7.32056 4.32808 7.90972 4.32808 8.61458C4.32808 9.41667 4.69267 10.0486 5.42183 10.5104C6.151 10.9722 7.41489 11.4583 9.2135 11.9688C10.8906 12.4549 12.1608 13.2263 13.0241 14.2831C13.8865 15.3409 14.3177 16.5625 14.3177 17.9479C14.3177 19.6736 13.8073 20.9861 12.7864 21.8854C11.7656 22.7847 10.5017 23.3438 8.99475 23.5625V26.625H6.07808Z" fill="white"/>
</svg>
