<svg width="25" height="31" viewBox="0 0 25 31" fill="none" xmlns="http://www.w3.org/2000/svg">
<path d="M12.0312 13.125C13.1916 13.125 14.3044 12.6641 15.1248 11.8436C15.9453 11.0231 16.4062 9.91032 16.4062 8.75C16.4062 7.58968 15.9453 6.47688 15.1248 5.65641C14.3044 4.83594 13.1916 4.375 12.0312 4.375C10.8709 4.375 9.75813 4.83594 8.93766 5.65641C8.11719 6.47688 7.65625 7.58968 7.65625 8.75C7.65625 9.91032 8.11719 11.0231 8.93766 11.8436C9.75813 12.6641 10.8709 13.125 12.0312 13.125ZM12.0312 10.9375C11.4511 10.9375 10.8947 10.707 10.4845 10.2968C10.0742 9.88656 9.84375 9.33016 9.84375 8.75C9.84375 8.16984 10.0742 7.61344 10.4845 7.2032C10.8947 6.79297 11.4511 6.5625 12.0312 6.5625C12.6114 6.5625 13.1678 6.79297 13.578 7.2032C13.9883 7.61344 14.2188 8.16984 14.2188 8.75C14.2188 9.33016 13.9883 9.88656 13.578 10.2968C13.1678 10.707 12.6114 10.9375 12.0312 10.9375ZM5.46875 24.0625C5.17867 24.0625 4.90047 24.1777 4.69535 24.3829C4.49023 24.588 4.375 24.8662 4.375 25.1562C4.375 25.4463 4.49023 25.7245 4.69535 25.9296C4.90047 26.1348 5.17867 26.25 5.46875 26.25H18.5938C18.8838 26.25 19.162 26.1348 19.3671 25.9296C19.5723 25.7245 19.6875 25.4463 19.6875 25.1562C19.6875 24.8662 19.5723 24.588 19.3671 24.3829C19.162 24.1777 18.8838 24.0625 18.5938 24.0625H5.46875ZM0 3.82812C0 2.81284 0.403319 1.83914 1.12123 1.12123C1.83914 0.403319 2.81284 0 3.82812 0H20.2344C21.2497 0 22.2234 0.403319 22.9413 1.12123C23.6592 1.83914 24.0625 2.81284 24.0625 3.82812V26.7969C24.0625 27.8122 23.6592 28.7859 22.9413 29.5038C22.2234 30.2217 21.2497 30.625 20.2344 30.625H3.82812C2.81284 30.625 1.83914 30.2217 1.12123 29.5038C0.403319 28.7859 0 27.8122 0 26.7969V3.82812ZM3.82812 2.1875C3.393 2.1875 2.9757 2.36035 2.66803 2.66803C2.36035 2.9757 2.1875 3.393 2.1875 3.82812V19.6875H5.46875V16.4062C5.46875 15.8261 5.69922 15.2697 6.10945 14.8595C6.51969 14.4492 7.07609 14.2188 7.65625 14.2188H16.4062C16.9864 14.2188 17.5428 14.4492 17.953 14.8595C18.3633 15.2697 18.5938 15.8261 18.5938 16.4062V19.6875H21.875V3.82812C21.875 3.393 21.7021 2.9757 21.3945 2.66803C21.0868 2.36035 20.6695 2.1875 20.2344 2.1875H3.82812ZM2.1875 26.7969C2.1875 27.232 2.36035 27.6493 2.66803 27.957C2.9757 28.2646 3.393 28.4375 3.82812 28.4375H20.2344C20.6695 28.4375 21.0868 28.2646 21.3945 27.957C21.7021 27.6493 21.875 27.232 21.875 26.7969V21.875H2.1875V26.7969ZM16.4062 16.4062H7.65625V19.6875H16.4062V16.4062Z" fill="white"/>
</svg>
