<svg width="33" height="33" viewBox="0 0 33 33" fill="none" xmlns="http://www.w3.org/2000/svg">
<path fill-rule="evenodd" clip-rule="evenodd" d="M22.3334 12.1253C22.3334 13.6724 21.7188 15.1562 20.6249 16.2501C19.5309 17.3441 18.0472 17.9587 16.5001 17.9587C14.953 17.9587 13.4693 17.3441 12.3753 16.2501C11.2813 15.1562 10.6667 13.6724 10.6667 12.1253C10.6667 10.5782 11.2813 9.0945 12.3753 8.00054C13.4693 6.90657 14.953 6.29199 16.5001 6.29199C18.0472 6.29199 19.5309 6.90657 20.6249 8.00054C21.7188 9.0945 22.3334 10.5782 22.3334 12.1253ZM19.4167 12.1253C19.4167 12.8989 19.1095 13.6407 18.5625 14.1877C18.0155 14.7347 17.2736 15.042 16.5001 15.042C15.7265 15.042 14.9847 14.7347 14.4377 14.1877C13.8907 13.6407 13.5834 12.8989 13.5834 12.1253C13.5834 11.3518 13.8907 10.6099 14.4377 10.0629C14.9847 9.51595 15.7265 9.20866 16.5001 9.20866C17.2736 9.20866 18.0155 9.51595 18.5625 10.0629C19.1095 10.6099 19.4167 11.3518 19.4167 12.1253Z" fill="white"/>
<path fill-rule="evenodd" clip-rule="evenodd" d="M16.5 0.458496C7.64067 0.458496 0.458374 7.64079 0.458374 16.5002C0.458374 25.3595 7.64067 32.5418 16.5 32.5418C25.3594 32.5418 32.5417 25.3595 32.5417 16.5002C32.5417 7.64079 25.3594 0.458496 16.5 0.458496ZM3.37504 16.5002C3.37504 19.5481 4.41483 22.3539 6.15754 24.5822C7.38142 22.975 8.96031 21.6725 10.7709 20.7765C12.5815 19.8804 14.5747 19.4151 16.5948 19.4168C18.5889 19.4149 20.557 19.8682 22.3493 20.7421C24.1416 21.6161 25.7108 22.8876 26.9373 24.4597C28.2009 22.8025 29.0517 20.8682 29.4193 18.8169C29.7868 16.7655 29.6607 14.6562 29.0512 12.6633C28.4417 10.6704 27.3664 8.85127 25.9143 7.35647C24.4622 5.86166 22.675 4.73413 20.7006 4.06716C18.7262 3.40019 16.6214 3.21295 14.5603 3.52096C12.4991 3.82896 10.541 4.62334 8.84783 5.83837C7.15467 7.05339 5.77518 8.65414 4.8235 10.5082C3.87182 12.3622 3.3753 14.4162 3.37504 16.5002ZM16.5 29.6252C13.4871 29.6297 10.565 28.5932 8.22837 26.691C9.1689 25.3446 10.4207 24.2453 11.8774 23.4866C13.3341 22.7279 14.9524 22.3323 16.5948 22.3335C18.2167 22.3322 19.8155 22.7179 21.2585 23.4585C22.7014 24.1991 23.9468 25.2733 24.8913 26.5918C22.5365 28.5558 19.5663 29.6295 16.5 29.6252Z" fill="white"/>
</svg>
