<svg width="35" height="29" viewBox="0 0 35 29" fill="none" xmlns="http://www.w3.org/2000/svg">
<path d="M25.1562 13.9375C24.5 13.7188 23.8438 13.5 23.4062 13.5H17.5V11.3125H24.0625C24.0625 10 23.1875 9.125 21.875 9.125H13.125C13.125 10.4375 14 11.3125 15.3125 11.3125V13.5C14.2188 13.5 13.125 13.0625 12.6875 12.1875L10.2812 8.25C9.625 7.375 8.75 6.9375 7.875 6.9375H6.5625V5.40625C6.5625 4.75 6.34375 4.3125 6.125 3.65625L5.46875 2.125C4.8125 1.03125 3.5 0.375 2.1875 0.375H0L10.9375 15.6875C11.8125 17 13.3438 17.875 14.875 17.875H17.5V20.0625H15.3125V24.4375H14C12.0312 24.4375 10.0625 25.3125 8.75 26.625H6.5625V28.8125H30.625V26.625H28.4375C27.125 25.3125 25.1562 24.4375 23.1875 24.4375H21.875V20.0625H19.6875V17.875H23.1875C23.625 17.875 24.2812 18.0938 24.7188 18.3125L28.4375 20.2812C30.4062 21.375 32.8125 21.375 34.7812 20.2812H35L25.1562 13.9375Z" fill="#A3C8CF"/>
</svg>
